<svg xmlns="http://www.w3.org/2000/svg" viewBox="0 0 390 430"><defs><style>.cls-1{fill:#060707;}.cls-2{fill:#f7d955;}.cls-3{fill:#005896;}.cls-4{fill:#00632f;}.cls-5{fill:#bd1717;}.cls-6{fill:#58595a;}.cls-7{fill:#fbfcf9;}.cls-8{fill:#2f2f30;}.cls-9{fill:#d3b329;}.cls-10{fill:#ebce2f;}.cls-11{fill:#ee9234;}.cls-12{fill:#005994;}.cls-13{fill:#faf0f7;}.cls-14{fill:#888c8b;}.cls-15{fill:#94191b;}.cls-16{fill:#9ea3a2;}.cls-17{fill:#007635;stroke:#1d1d1b;stroke-miterlimit:10;stroke-width:0.25px;}.cls-18{fill:#1d1d1b;}.cls-19{fill:#eebd3a;}.cls-20{fill:#2d1b0f;}.cls-21{fill:#bf890e;}.cls-22{fill:#100d1c;}</style></defs><g id="Lag_2" data-name="Lag 2"><polygon class="cls-1" points="322.67 122.31 306.38 105.46 322.67 69.6 345.91 61.97 359.95 73.58 358.91 91.27 322.67 122.31"/><polygon class="cls-1" points="65.23 121.82 84.29 114.32 71.7 79.87 48.46 61.78 35.05 67.53 28.66 79.18 39.68 100.26 65.23 121.82"/><polygon class="cls-2" points="66.32 197.63 151.94 198.29 149.45 245.38 194.67 249.56 194.67 399.56 163.84 378.2 115.08 358.23 73.75 321.08 57.03 330.83 11.06 269.53 66.32 197.63"/><polygon class="cls-3" points="227.46 198.29 325.44 197.94 377.92 270.46 336.13 331.29 316.62 321.54 283.19 351.73 227.46 376.34 194.95 404.01 196.78 240.9 227.46 198.29"/><path class="cls-4" d="M306.38,17.4C324,53.16,335.5,43.56,343.09,57.78c8.22,15.38-14.86-.47-34.83,36.68-14.7,27.35-.83,65.5,2.32,73.84,6.42,16.94,12.23,23.06,9.91,29.72l-93,.27c-19.13-13.09-26.33-32.1-32-47.17l.46-81.33c2.57-4.55,6.35-11.09,13.93-15.73,12.85-7.87,20.26-.29,33.9-6,15.48-6.52,32-30.18,32-30.18C280.94,14.87,301.74,8,306.38,17.4Z"/><path class="cls-5" d="M83.71,17.4C66.06,53.16,54.59,43.56,47,57.78c-8.22,15.38,14.86-.47,34.83,36.68,14.7,27.35.83,65.5-2.33,73.84-6.42,16.94-12.23,23.06-9.9,29.72l93,.27c19.13-13.09,26.33-32.1,32-47.17l-.46-81.33c-2.57-4.55-6.36-11.09-13.94-15.73-12.84-7.87-20.25-.29-33.9-6-15.47-6.52-32-30.18-32-30.18C109.14,14.87,88.35,8,83.71,17.4Z"/><path class="cls-6" d="M107.15,210.29c1.72-.15,1.75-4,3.65-4.51a3.8,3.8,0,0,1,3.54,1.22c1.15,1.29,0,2.87.48,4.63.69,2.29,3.45,2.69,6.09,4.14,4.4,2.41,2.88,5.22,7.09,8.51,4.8,3.74,7.46,1.79,8.85,4.71s.74,7.36-2.06,9.3c-5.27,3.66-9.31-.59-14.24.73-1.67.45,2,1.73-5.07,2.88-2.25.37-3.51,9.92,6.09,16.78,11.89,8.47,20.21,2,32.22,9.81,6.75,4.39,8.47,6.74,13.51,18.63,4.13,9.73,6.16,12.19,5.36,15-1.56,5.43-7.38,4.72-8.53,9.74-3.23,14.15,6.05,17,6.82,20.7.63,3,.53,5.82-1.21,7.92-2.25,2.69-5.36,1.36-13.28,2.8-8.52,1.55-11.28,4.25-14.24,2.31a6.42,6.42,0,0,1-2.56-6.7c1.08-3.83,9.65-1.09,11.69-4.5s-4.75-11.81-4.75-11.81c-26.77-.48-41.76-4.81-55.89-20.7,0,0-10.86,7.45-28.37,8.16-8.93.36-13.15.75-15.09-1.95s-1.58-7,.61-8.77c2.74-2.19,11.89,1.27,13,1.22,4.64-.21,13.93-4.88,14.25-9.86s-7-9.25-8-9.86c-5.9-3.35-10-2.06-25.08-3.29-12.51-1-14.93-2.35-16.07-4.39-1.8-3.22-.53-8.53,2.31-10,3.18-1.62,9.75,1.05,13,4.38,1.54,1.57,18.36-.78,22-6.81,2.47-4.06-.33-5.84,1.09-11.69,1.28-5.24,19.92-23.7,20.58-25.94s-2.22-2.93-2.07-5.72c.19-3.33,3-6.92,6.21-7.43,2.64-.42,3.14,1.61,7.31,2.44C97.28,212.52,100.36,210.85,107.15,210.29Z"/><path class="cls-7" d="M134.44,236.88c.34-1.23-1.73-2.89-2.42-3.29-3-1.7-12.55-3.3-15.07-3.29-15.89.07-12.37-5.33-31.52-3.63-3.33.29-12.57,14.26-13.16,16.1-3,9.38-3.83,15.5,4.85,26,2.12,2.55,10.71-10.21,22.34-16.11,4.2-2.12.52-8.58,2.08-9.69,3.53-2.54,8.25-2.32,14.92-2.21.51,0,3.12-.75,2.57-1.43s-2.79-1.27-2.77-1.39,5.62-1,12.12.7C130.76,239.23,134.06,238.26,134.44,236.88Z"/><path class="cls-7" d="M98.14,214.07c-.33,1.11,2.82,3.36,6,4.59,4.92,1.9,6.55.2,10.17,1.86,4.46,2,4.34,4.4,7.5,6.82a12.41,12.41,0,0,0,9.54,2.79c2-.32,4.63-.59,4.59-1.43-.06-1.06-3.78-.62-7.44-3.1-3-2-2.11-3.38-5.21-6.2-4.23-3.85-7.38-2.69-9.23-6-1.67-3,.56-5.87-1.36-6.51s-2.11,4.47-3.79,4.72C103.55,212.39,98.59,212.6,98.14,214.07Z"/><path class="cls-7" d="M91.32,219c.1.66-.81,1.26-1,1.43a4.18,4.18,0,0,1-5.46-1c-1-1.49-.22-3.35,0-3.91A7,7,0,0,1,91,211.35c4.35-.07,8,4.68,7.31,7a1.89,1.89,0,0,1-1.42,1.36c-1.71.15-3.29-1.67-5.52-5.2-.22-.36-1.54-.51-2.73,0-.81.35-1.87,1.23-1.73,2C87.11,217.88,91.13,217.7,91.32,219Z"/><ellipse class="cls-8" cx="113.34" cy="225.31" rx="2.15" ry="2"/><circle class="cls-7" cx="113.34" cy="225.31" r="1.37"/><path class="cls-7" d="M113.66,251c1.8-.49,2.91,4.3,7.51,8.29,9.1,7.92,18.73,1.28,29.09,8.45,6.44,4.46,10.87,12.67,8.76,16.11s-10.57,1.72-16,.63c-6.56-1.34-25.41-5.19-30.34-18.77C110.39,259.25,111.49,251.55,113.66,251Z"/><path class="cls-6" d="M142.36,317.2c-1.64.93,1.41,6.66-1.36,9.19s-8.93-1.33-10.83,1c-1.33,1.64-3.2,5.77-.21,6.77,7,2.35,22.16,1.36,25.72-.5C162.09,330.32,145,315.71,142.36,317.2Z"/><path class="cls-9" d="M241.7,278.48c-4.94-2.74-8.59.13-12.31-3.39-6-5.65.65-15.7-4.31-22.63-5.42-7.57-25-10.43-28.79-2.31-2.89,6.2-1.54,54.5,3.85,57.42.16.09-1.39.94-1.23,1.7.19,1,2.43.63,3.08,1.84.85,1.62-2,4.25-1.24,5.24.56.69,2.21-.32,2.93.46s-.84,3.14-.15,3.85c1,1,5.44-2.44,6.31-1.54s-2.24,4.53-1.39,5.38,3.44-1.48,4.47-.61-.62,3.81.15,4.31,3.67-3.07,4.77-2.46-.59,4.82.46,5.38,4.26-3.73,5.39-3.07c.74.42,0,2.65.62,2.92.82.35,2.6-3.12,3.69-2.77s.42,3.78,1.54,4.16,2.51-2.22,3.23-1.85-.16,2.67.62,3.08,1.66-.94,2.15-.62-.46,2.39,0,2.77c.74.61,5-3.18,6.62-4.92C252.65,319.6,255,285.81,241.7,278.48Z"/><path class="cls-9" d="M266.48,272.32c5.09-5.56,5.06-13.18,5-14.51-.19-10-6.95-12.09-5.8-18.2,1.26-6.74,10-7.09,18.19-14.91,10.66-10.2,10.79-25.73,11.81-25.55,1.89.33-1.86,11.63-.19,12.2,1.91.65,8.27-13.35,8.9-13.16,3.66,1.08-4.91,13.63-4.26,13.93s12.16-12.53,11.23-13.55c-.63-.68,1.92.72,2.13,1.55.58,2.3-11.33,16.51-10.84,17s19.87-16.59,20.71-16.07c5.85,3.58-19.33,20.83-18.19,22.07s23.19-17.2,23.61-16.84c5.67,4.74-23.45,21.19-22.45,22.45,1.86,2.34,29.55-13.89,30.19-12.78,2.7,4.66-22.64,14.78-21.48,17,.83,1.61,14.28-3.79,13.93-2.91-4.7,12.12-21.33,8.06-20.71,10.65s20.81-.72,21.1,1c.25,1.43-14,4.84-13.74,6.19s12.1-.32,12.39,1.16c.2,1.1-6.08,2.95-5.81,4.26.22,1.1,4.74.66,5,1.94s-3.78,2.8-3.48,3.87,5,.43,5.22,1.36-5.05,2.28-5,4.25c0,1.7,3.92,2.72,3.68,3.68s-3.81.31-4.26,1.55,2.16,2.49,1.74,3.68-3.08.64-3.48,1.74c-.5,1.37,3.17,3.47,2.71,4.45s-4.34-.21-4.65.58,3.38,2.4,3.1,3.68-4.89,1.09-5,2.13,5,2.52,4.84,3.29-4.76,0-5,1,3.1,2.09,2.91,2.9c-.34,1.38-10.52-.33-10.84,1-.24,1,5.1,2.71,4.84,3.87s-5.7.6-5.81,1.36c-.14.94,8.26,2.68,8.13,3.67s-6.64.27-7,1.75c-.24,1.09,3.15,2.33,2.9,3.29-.37,1.47-8.77-.1-9.29,1.55s6,4.63,5.62,5.61c-.37.83-5.26-1-5.81,0-.72,1.34,6.72,6.28,6.19,7.16s-9.17-3.82-10.06-2.52,5.39,6.72,4.84,7.36-7.76-5-9.1-3.68c-.7.69.64,2.82-.19,3.49s-2.68-1.1-3.68-.39,0,2.95-1,3.48c-.78.44-2-.82-2.52-.38s.5,2.47,0,2.9c-.77.68-5.16-4.18-5.8-3.68s1.61,3.51,1,4.07-3.28-2-4.06-1.36.68,2.76,0,3.29-2.5-1.33-3.29-.77c-.61.43.15,1.76-.19,3.29a5.63,5.63,0,0,1-3.68,3.68c-6.71,1.12-27.07-54.1-13.55-63.88C260.43,275.9,263.28,275.82,266.48,272.32Z"/><path class="cls-10" d="M275.37,278.29c-.53-3.66-2.66-6.35-4-7-9-4.65-13.71-7.13-22.3-4.32-8.36,2.74-13,12.28-20.86,25-5.25,8.5,7.59,35.38,11,41.54,2.85,5.21-5.18,7.87-8.29,12.63-7.93,12.15-20.87,18.5-20,20.29.54,1,4.44-1.06,6.66.9,2.67,2.35-.59,7.49.9,9.89,5.05,8.13,65.36-14.66,63.13-28.78-.76-4.76-8-4.8-10.44-12.59S275.15,325,274.65,315c-.62-12.55-11.23-21.26-8.27-24.46,1-1,2.06-.1,4.31-1.44a15.31,15.31,0,0,0,2.24-1.95c1.12-1.67-14.89-1.92,2.44-5.71A20.48,20.48,0,0,0,275.37,278.29Z"/><path class="cls-11" d="M263.36,283.23c.12-.41,2,.53,4.19-.22,4.11-1.43,4.49-7.28,7-7.26.92,0,.86.77,2.92,1.65s3.12.26,4.26,1.05c2.67,1.83,1.52,8.29,1.52,8.29s-3.12-.6-4.49-2.69a3,3,0,0,0-2.83-1.54c-1.06-.14-1.38,1.2-3.1,1.47-2.07.33-5.12.06-5.15.24s4.16.63,9.15,5.16c.88.81,1.51,2.22,1.09,2.53-.61.44-2.39-1.6-5.32-3.67C267.65,284.73,263.19,283.85,263.36,283.23Z"/><path class="cls-12" d="M263.53,275.37c.27-.64,2.05-.63,3.3,0,.8.39,1.81,1.25,1.63,1.82s-1.86.87-3.11.35C264.27,277.08,263.28,276,263.53,275.37Z"/><path class="cls-13" d="M217.71,124.76c-.36,2.38,5.69,2.38,5.69,2.38a17.25,17.25,0,0,0-3.53-3.57C219.08,123.12,217.81,124.11,217.71,124.76Z"/><path class="cls-13" d="M211.18,127.91c-.14,2.41,5.88,1.85,5.88,1.85a17.12,17.12,0,0,0-3.84-3.23C212.39,126.15,211.22,127.26,211.18,127.91Z"/><path class="cls-14" d="M258.15,40c1.49,2.29,7-1.39,13.39,1.79,4,2,8,6.6,8.33,11.49.44,6.61-3,10.91-14.16,24.2C257,87.82,251.9,88,252.6,98.27c.6,8.69,11.53,8.8,12.83,15.3,2.09,10.41-5.91,8.55-18.1,16.79-10.94,7.39-12.72,10.56-12.87,13.88-.24,5.34,7.15,9.78,14.93,8.79,3-.39,3.88-1.65,9.57-4.86,10.67-6,14.38-6,18.44-9.16,8.6-6.81,7-19.65,6.88-26.91-.15-14.27-5.38-19.92-1-27.67,2.51-4.49,4.23-5.2,8.57-9.65,7.35-7.56,10.38-26.41,5.71-36.13C293.71,30.7,283.7,21.13,273.24,23,263.13,24.89,256.12,36.9,258.15,40Z"/><path class="cls-15" d="M233.3,119.84c.81-.23,2.39,2.42,3.18,4.66.54,1.53,1.48,4.19.57,6.88-1.08,3.21-2.51,3.36-6.77,6.66-3.81,3-4.5,5.65-7.1,6.37-.89.24-.62.55-1-.06-.73-1.26,3.47-5,5.63-6.94,4.29-3.84,5.6-4.13,6.2-6.08,1.19-3.93-1.08-4.67-1.25-6.66C232.72,123.89,232.39,120.1,233.3,119.84Z"/><path class="cls-16" d="M208.84,128.9a5,5,0,0,0,4.35.7c1.81-.58,1.81-1.87,3.66-3.32,2.73-2.12,4.51-.71,7-2.44,3.17-2.21,2.26-6,4-6.44,3.51-1,8.37,12.57,9.59,12,.68-.32-.16-4,.7-9.56.66-4.34,2.74-5.14,2.09-7.67-2.11-8.14-5.79-5.85-7.15-7.5-2.12-2.57-.9-7.53.87-8.36,7.91-3.67,15,15.84,23.53,20.74,3,1.74,16.74,7.34,26.49.7,9.08-6.2,11.46-21,7.14-30.85-5.26-12.06-11.87-14.23-28-24.05-10-6-9.26-15.81-16-18.08-6-2-7.65,2-12.22,6.1-4.1,3.65,1.74,16.29,3.47,18.6,9.39,12.59,14,8.35,24.22,19.69,2.86,3.19,7.05,6.49,5.58,8.89-5.9,9.66-20.69-18.91-36.8-12.66-10.16,3.93-7.41,15.18-9,19.11-2.22,5.36-11.12,6.4-11.51,11.33a9.63,9.63,0,0,1-1,5c-1.2,2-2.68,2.2-3,3.84A4.61,4.61,0,0,0,208.84,128.9Z"/><path class="cls-17" d="M216.1,122.67c-.27-.27-.46-2.46,1.22-4.28.76-.82,3-1,3.19-.74a3.87,3.87,0,0,1-.34,3.6C219.12,122.69,216.61,123.21,216.1,122.67Z"/><path class="cls-18" d="M217.11,119.28c-.25.29.38,1.21.82,1.69.12.14.9,1,1.22.82s.21-1.37-.47-2C218.17,119.26,217.33,119,217.11,119.28Z"/><path class="cls-14" d="M246.93,160.48c9-1.91,19.49,10.31,21.94,13.58,4.75,6.33,6.24,19.09,1.47,23.32a5.23,5.23,0,0,1-5.77.56c-3.13-1.62.78-7.45-1.47-12.69-4.29-10-18.81-11.72-20.7-19.11C241.22,161.47,241.66,161.6,246.93,160.48Z"/><path class="cls-19" d="M141.1,100.71c7.62.2,9.83,5.59,13.47,1.6,5.06-5.56,7.54-5.53,18.54-12.81,5.85-3.87,9.59-6.29,11.61-4.93,2.3,1.54,2.5,8.18-.94,11.73S173,99.18,170,103.46c-4.83,6.85-16.54,14.22-14.47,18.32,1,2,17.08-.1,20.4-1.33,4.17-1.56,2.54-7.9,6.94-10.27.42-.23,3.64-1.92,5.2-.67,2.43,1.94.7,10.91-4.54,15.74a26.15,26.15,0,0,1-9.71,5.13,71,71,0,0,1-9.56,1.3,15.68,15.68,0,0,0-6.62,2.09c-14.17,8.21-26.28,20.8-25.25,24.1,1.35,4.3,1,4.15,5.93,11.13,6.79,9.58,8.7,23.92,3.33,28.14-2.77,2.18-7.87,2-10.4-.27-2.16-1.9-1.12-4.11-3.6-7.6-1.85-2.59-5.47-5.65-7.74-4.8-3.09,1.16-2.56,8.5-6.57,12.54-4.73,4.75-12.37,3.93-14.35-.77-1.19-2.82-1.57-5.44-.61-12.79.69-5.32,1.35-10.91.46-11-1.91-.16-5.28,22-14.35,24.64-2,.58-4,1.57-2.22-.06,10.8-10.14,13-36.51,15.37-43.25,3.76-10.52,15.18-15.41,16.4-18.94,3.9-11.24-2.9-17,2-24.54C122.48,100.41,140.24,100.68,141.1,100.71Z"/><path class="cls-19" d="M127,60.66c2.51-.5,5.18-1.07,8,.09,1.57.64,1.45,1.08,3.1,1.86,4.33,2.06,7.06-.11,9.1,1.5,2.89,2.28,1.6,10-.71,10.6-1.57.44-3.06-1.9-5.29-1.61-2.58.35-4.43,4.22-3.28,5.85s4.46-.6,6.89,1.42c1.49,1.23,2.33,3.65,1.59,5.3-.44,1-5.7,4.3-9.28,5-7.28,1.5-15.09,3.12-20.85-1.86-7.74-6.69-7.18-21.3-1.32-25.71C115.68,62.58,115.41,63,127,60.66Z"/><path class="cls-20" d="M127.88,64.3A3.26,3.26,0,0,0,130.09,61c-.25-1.16-1.61-1.18-1.75-2.21-.17-1.33,2-1.85,2.22-3.61.16-1.54-1.52-3.76-2.22-3.15s-.4,2-1.51,2.57c-2.26,1.09-8.67-1.16-14.8-.59-9,.84-15.18,7.47-18.06,14-6.93,15.72,9,36.7,3.92,48.27-.28.63-1.43,5.06-.42,4.51,1.8-1,6.23-3.71,8.85-2.17,3,1.78,2,7.69.88,10.81-.45,1.31,4.54-2.54,5.65-2.12,1.34.52.61,5.43.93,5.25,1.85-1,.31-11.14,7-18.64a20.56,20.56,0,0,1,10.72-6.64c6.13-1.33,10.38,1.38,17.36-1.29,1-.37,3.49-1.42,3.49-2.79,0-1.6-3.35-2.37-3.26-4,.08-1.42,2.78-1.72,2.8-2.8,0-2-9.44-2.75-9.79-5.71-.19-1.59,2.4-2.74,2.1-3.38-.73-1.52-15,6.68-20.51,2a5.28,5.28,0,0,1-2-4.31c.46-3.7,6.9-4,7.46-7.69.39-2.53-2-6.58-4.31-6.4-4.29.31-7.49,2.08-9.09-1.87-.69-1.7,3.84-6.6,7.69-6.06C125.37,63.28,126.28,64.79,127.88,64.3Z"/><path class="cls-21" d="M132,153.67c8.29-5.77,12-18,12-18,51.71,23.63,102,1.2,102,1.2,2.56,7.77,11.41,16.21,11.41,16.21-28.34,48.64-2.7,95.13-2.7,95.13-5.64,2.53-11.71,11.4-11.71,11.4-50.66-10.64-95.72-.3-95.72-.3-1.33-5.17-11.71-11.4-11.71-11.4C160.59,190,132,153.67,132,153.67Z"/><rect class="cls-21" x="70.03" y="195.02" width="250.47" height="6.54"/><rect class="cls-21" x="26.63" y="234.55" width="336.07" height="6.54" transform="translate(432.49 43.15) rotate(90)"/><path class="cls-21" d="M84.36,16.91c39.48-17.9,30.74,41,96.7,41,0,0,6.67,18.07,13.25,18.39,7,.34,15-17.17,15-17.17,66.94-.24,60.32-57.63,97.11-41.69,0,0,0-12.5-13.49-12.5-30.16,0-26.73,43.65-86.32,44.14,0,0-7.38,15.16-11.79,15.2-5.36.06-10.28-15.45-10.28-15.45C131,52.47,126.87,4.9,97.93,4.9,82.48,4.9,84.36,16.91,84.36,16.91Z"/><path class="cls-21" d="M357.6,75.88c6.25,18-51.89,38-33.85,55.64,4,3.94,16.05.9,17.16-3.71.75-3.13-4.12-4.56-5.56-8.81,0,0,38.94-25.5,30.6-45.44-5-12-21.27-25.3-29.21-22.25-39.89,15.3-74.19,118.23,35.7,219.31,0,0-28.75,36.17-36.41,53.47,0,0-12.28-5.25-18.77-16.84,0,0-22.72,41.27-72,56.27-33.53,10.19-46.13,27-50.27,40.49-4.25-13.4-16.9-30.06-50.17-40.17-49.32-15-72-56.27-72-56.27C66.25,319.16,54,324.41,54,324.41c-7.66-17.3-36.41-53.47-36.41-53.47,109.89-101.08,75.59-204,35.7-219.31-7.94-3.05-24.19,10.26-29.21,22.25-8.34,19.94,30.6,45.44,30.6,45.44-1.44,4.25-6.31,5.68-5.56,8.81,1.11,4.61,13.12,7.65,17.16,3.71,18-17.62-40.1-37.67-33.85-55.64,11.13-32,119.54,37.09-30.14,194.74,0,0,38,43.58,51.93,71.4l18.08-12c32.46,57,100.62,32.92,122.41,94.59.26.72,1-.34,1.52-2.68,22.68-58.69,89.49-35.94,121.53-92.23L335.81,342c13.91-27.82,51.93-71.41,51.93-71.41C238.06,113,346.47,43.89,357.6,75.88Z"/><path class="cls-22" d="M160.59,158.31l29.84-.19c.11.91-2,1.86-3.48,3.34s.39,39.13.39,39.13c5.27-.39,12.4-2.65,15.93-5.31,0,0,1.92-34.31-.2-36-3.45-2.73-6.51-3.5-6.29-4.72h29.94c.13,1-4.7,1.28-5.95,4.33-1.67,4.08-.59,29.1-.59,29.1,8.52-4.23,18.92-3.55,19.22-1.43.14,1-4,2.57-4.67,7.33-.31,2.27-4-5.08-14-1.18,0,0,0,38.84,2.1,45.4.65,2,5.8,1.84,5.57,3.18l-31.66-.4c-.16-1.2,2.69-1.78,5.9-4.32,2.79-2.22,1.19-34.88,1.19-34.88a58.11,58.11,0,0,1-16.14,4.59s-2.35,22,1.48,26.32c3.08,3.5,4.21,1.7,4,3l-34,.4c-.1-1.05,5.2,0,7.47-4.33,1.85-3.48.59-25.37.59-25.37-8.88-1.77-18.36-7.4-14.43-13.89,2-3.23,15.15-2.62,10.24-1.3-16.65,4.45,3.63,9.61,4.39,9.69,0,0,.21-35.79-.2-37.17C166,159.15,160.33,159.72,160.59,158.31Z"/></g></svg>