<svg xmlns="http://www.w3.org/2000/svg" viewBox="0 0 110 120"><defs><style>.cls-1{fill:#005896;}.cls-2{fill:#d3b329;}.cls-3{fill:#ebce2f;}.cls-4{fill:#ee9234;}.cls-5{fill:#005994;}.cls-6{fill:#bf890e;}.cls-7{fill:#e0f2fb;}.cls-8{fill:#007cb2;}.cls-9{font-size:33.14px;}.cls-10,.cls-9{fill:#1d1d1b;font-family:FrederickatheGreat-Regular, Fredericka the Great;}.cls-10{font-size:21.86px;}</style></defs><g id="Lag_12" data-name="Lag 12"><polygon class="cls-1" points="28.2 9.12 9.12 29.69 19.91 87.33 54.64 111.37 89.07 87.33 99.86 29.69 80.78 9.12 28.2 9.12"/><path class="cls-2" d="M41.49,60.63c-3-1.64-5.16.08-7.4-2-3.59-3.4.39-9.43-2.59-13.59-3.25-4.54-19.6-6.3-21.87-1.42C7.9,47.3,13.3,76.35,16.53,78.1c.1.05-.83.57-.74,1s1.46.38,1.85,1.11c.51,1-1.21,2.55-.74,3.14.33.42,1.33-.19,1.76.28s-.51,1.88-.1,2.31c.59.6,3.27-1.47,3.79-.93s-1.34,2.73-.83,3.24,2.06-.89,2.68-.37-.37,2.29.09,2.59S26.5,88.65,27.16,89s-.36,2.89.28,3.23S30,90,30.67,90.4c.45.25,0,1.59.37,1.75s1.56-1.87,2.22-1.66.25,2.27.92,2.49,1.51-1.33,2-1.11-.1,1.61.37,1.85,1-.56,1.29-.37-.28,1.44,0,1.67c.44.36,3-1.91,4-3C48.06,85.33,49.44,65,41.49,60.63Z"/><path class="cls-2" d="M56.37,56.94c3.05-3.34,3-7.92,3-8.72-.12-6-4.18-7.26-3.49-10.93.76-4,6-4.26,10.93-8.95,6.4-6.12,6.48-15.45,7.09-15.34,1.13.2-1.12,7-.12,7.32,1.15.39,5-8,5.35-7.9,2.2.65-3,8.19-2.56,8.37s7.3-7.53,6.74-8.14c-.37-.41,1.16.43,1.28.93C85,15,77.81,23.49,78.1,23.81s11.93-10,12.44-9.65c3.51,2.15-11.61,12.51-10.93,13.25S93.54,17.09,93.79,17.3C97.2,20.15,79.71,30,80.31,30.78c1.12,1.41,17.75-8.34,18.13-7.67,1.62,2.8-13.59,8.88-12.9,10.23.5,1,8.58-2.28,8.37-1.74C91.09,38.87,81.1,36.43,81.47,38s12.5-.43,12.67.58-8.41,2.9-8.25,3.72,7.27-.19,7.44.7c.12.65-3.65,1.76-3.49,2.55s2.85.4,3,1.17S90.59,48.39,90.77,49s3,.26,3.14.82-3,1.36-3,2.55c0,1,2.35,1.63,2.21,2.21s-2.29.19-2.56.93,1.29,1.5,1,2.21-1.85.39-2.1,1c-.3.82,1.91,2.08,1.63,2.67s-2.6-.13-2.79.35,2,1.44,1.86,2.21-2.93.65-3,1.27,3,1.52,2.9,2-2.85,0-3,.58,1.86,1.26,1.75,1.75c-.2.82-6.32-.2-6.51.58-.14.57,3.06,1.62,2.9,2.32s-3.42.36-3.48.81,5,1.62,4.88,2.21-4,.16-4.19,1c-.14.66,1.89,1.4,1.75,2-.23.88-5.27-.06-5.58.93s3.62,2.78,3.37,3.37-3.16-.62-3.49,0c-.43.8,4,3.77,3.72,4.3s-5.5-2.3-6-1.51,3.23,4,2.9,4.41-4.66-3-5.46-2.21c-.42.42.39,1.7-.12,2.1s-1.61-.66-2.21-.24,0,1.78-.58,2.1-1.17-.5-1.51-.24.3,1.49,0,1.75c-.46.4-3.1-2.51-3.48-2.21s1,2.11.58,2.44-2-1.19-2.44-.81.4,1.65,0,2-1.51-.8-2-.46.09,1.06-.12,2a3.34,3.34,0,0,1-2.21,2.21c-4,.67-16.25-32.48-8.13-38.36C52.73,59.09,54.44,59,56.37,56.94Z"/><path class="cls-3" d="M61.7,60.52a6,6,0,0,0-2.37-4.21c-5.41-2.79-8.24-4.28-13.39-2.59s-7.82,7.37-12.53,15C30.26,73.83,38,90,40,93.67c1.71,3.13-3.91,4.34-5,7.58-1,3.07,8.5,5.86,9.39,7.29,3,4.89,22.19,4.54,21.07-5.9-.3-2.88-4.81-2.89-6.26-7.56s2.35-6.52,2.05-12.53c-.37-7.54-6.74-12.77-5-14.69.58-.62,1.24-.06,2.6-.86a9.68,9.68,0,0,0,1.34-1.17c.67-1-8.94-1.16,1.46-3.43A12.31,12.31,0,0,0,61.7,60.52Z"/><path class="cls-4" d="M54.49,63.49c.07-.25,1.21.31,2.52-.14C59.48,62.5,59.7,59,61.23,59c.55,0,.52.46,1.75,1s1.88.16,2.56.63c1.61,1.11.91,5,.91,5A4.6,4.6,0,0,1,63.76,64a1.83,1.83,0,0,0-1.7-.93c-.64-.08-.83.72-1.86.89-1.25.19-3.08,0-3.1.14a14.2,14.2,0,0,1,5.5,3.1c.53.48.91,1.33.65,1.52s-1.43-1-3.19-2.2C57.07,64.39,54.39,63.86,54.49,63.49Z"/><path class="cls-5" d="M54.59,58.76c.17-.38,1.23-.37,2,0,.47.24,1.09.76,1,1.1s-1.12.52-1.87.21S54.44,59.11,54.59,58.76Z"/><path class="cls-6" d="M84.76,2.11H25.24L3.63,25.41,15.84,90.67l39.33,27.22,39-27.22,12.21-65.26Zm4.82,85-34.43,24-34.73-24L9.63,29.45,28.71,8.87H81.29l19.08,20.58Z"/><path class="cls-7" d="M23.12,25.72c52.42,6.49,80.71-7.33,87.07,1.94,0,0-4.82,7-6.73,23.28a6.69,6.69,0,0,0,.05-2c-.28-2.39-2.9-4.1-5.73-3.83-10.59,1-47.14,4-74.41,1.41Z"/><path class="cls-8" d="M5.19,20.64s16-4.19,22.13,1.13a206.68,206.68,0,0,1-.5,28.54,46.64,46.64,0,0,0-21.38.63S6.83,32.71,5.19,20.64Z"/><text class="cls-9" transform="translate(8.1 47.28) scale(0.65 1)">R</text><text class="cls-10" transform="translate(28.14 42.46) scale(0.84 1)">avenclaw</text></g></svg>