<svg xmlns="http://www.w3.org/2000/svg" viewBox="0 0 110 120"><defs><style>.cls-1{fill:none;}.cls-2{fill:#00632f;}.cls-3{fill:#888c8b;}.cls-4{fill:#bd1717;}.cls-5{fill:#bf890e;}</style></defs><g id="Lag_6" data-name="Lag 6"><polygon class="cls-1" points="73.02 98.65 73.2 98.52 94.25 62.17 94.3 61.89 73.02 98.65"/><polygon class="cls-2" points="28.71 8.87 9.63 29.45 14.5 55.48 41.48 8.87 28.71 8.87"/><polygon class="cls-3" points="62.36 8.87 41.48 8.87 14.5 55.48 19.6 82.73 62.36 8.87"/><polygon class="cls-2" points="20.42 87.08 32.94 95.75 82.49 10.17 81.29 8.87 62.36 8.87 19.6 82.73 20.42 87.08"/><polygon class="cls-3" points="47.85 106.07 95.34 24.03 82.49 10.17 32.94 95.75 47.85 106.07"/><polygon class="cls-2" points="100.37 29.45 95.34 24.03 47.85 106.07 55.15 111.13 73.02 98.65 94.3 61.89 100.37 29.45"/><rect class="cls-4" x="24.19" y="65.05" width="94.8" transform="translate(-20.57 94.42) rotate(-59.93)"/><polygon class="cls-3" points="89.58 87.08 94.25 62.17 73.2 98.52 89.58 87.08"/><polygon class="cls-5" points="73.02 98.65 66.44 110.02 66.62 109.9 73.2 98.52 73.02 98.65"/><polygon class="cls-5" points="90.72 8.53 84.76 2.11 79.63 2.11 85.26 5.37 90.72 8.53"/><polygon class="cls-5" points="3.63 25.41 5.44 35.07 23.33 4.17 3.63 25.41"/><polygon class="cls-5" points="94.25 62.17 102 48.78 102.05 48.5 94.3 61.89 94.25 62.17"/><polygon class="cls-5" points="14.5 55.48 9.63 29.45 28.71 8.87 41.48 8.87 45.4 2.11 25.24 2.11 23.33 4.17 5.44 35.07 10.54 62.33 14.5 55.48"/><polygon class="cls-5" points="66.27 2.11 45.4 2.11 41.48 8.87 62.36 8.87 66.27 2.11"/><polygon class="cls-5" points="14.5 55.48 10.54 62.33 15.64 89.58 19.6 82.73 14.5 55.48"/><polygon class="cls-5" points="20.42 87.08 19.6 82.73 15.64 89.58 15.84 90.67 30.15 100.57 32.94 95.75 20.42 87.08"/><polygon class="cls-5" points="62.36 8.87 81.29 8.87 82.49 10.17 85.26 5.37 79.63 2.11 66.27 2.11 62.36 8.87"/><polygon class="cls-5" points="32.94 95.75 30.15 100.57 45.06 110.89 47.85 106.07 32.94 95.75"/><polygon class="cls-5" points="82.49 10.17 95.34 24.03 99.09 17.55 90.72 8.53 85.26 5.37 82.49 10.17"/><polygon class="cls-5" points="99.09 17.56 95.34 24.03 100.37 29.45 94.3 61.89 102.05 48.5 106.37 25.41 99.09 17.56"/><polygon class="cls-5" points="55.15 111.13 47.85 106.07 45.06 110.89 55.17 117.89 66.44 110.02 73.02 98.65 55.15 111.13"/><rect class="cls-5" x="43.67" y="108.48" width="5.57"/><rect class="cls-5" x="93.47" y="20.79" width="7.48"/><polygon class="cls-5" points="102 48.78 94.25 62.17 89.58 87.08 73.2 98.52 66.62 109.9 94.16 90.67 102 48.78"/></g></svg>