<svg xmlns="http://www.w3.org/2000/svg" viewBox="0 0 110 120"><defs><style>.cls-1{fill:#00632f;}.cls-2{fill:#888c8b;}.cls-3{fill:#faf0f7;}.cls-4{fill:#94191b;}.cls-5{fill:#9ea3a2;}.cls-6{fill:#007635;stroke:#1d1d1b;stroke-miterlimit:10;stroke-width:0.25px;}.cls-11,.cls-12,.cls-13,.cls-14,.cls-15,.cls-16,.cls-17,.cls-18,.cls-19,.cls-7{fill:#1d1d1b;}.cls-8{fill:#bf890e;}.cls-9{fill:#fdf9d7;}.cls-10{fill:#007337;}.cls-11{font-size:40.07px;}.cls-11,.cls-12,.cls-13,.cls-14,.cls-15,.cls-16,.cls-17,.cls-18,.cls-19{font-family:FrederickatheGreat-Regular, Fredericka the Great;}.cls-12{font-size:20.36px;}.cls-13{font-size:18.69px;}.cls-14{font-size:22.92px;}.cls-15{font-size:20.88px;}.cls-16{font-size:21.03px;}.cls-17{font-size:22.45px;}.cls-18{font-size:17.8px;}.cls-19{font-size:20.13px;}</style></defs><g id="Lag_11" data-name="Lag 11"><polygon class="cls-1" points="28.71 8.87 9.63 29.45 20.42 87.08 55.15 111.13 89.58 87.08 100.37 29.45 81.29 8.87 28.71 8.87"/><path class="cls-2" d="M55.27,82.59c6-3.4,8.09-3.35,10.37-5.16,4.84-3.83,3.91-11.05,3.87-15.14-.08-8-3-11.21-.58-15.57,1.42-2.52,2.39-2.92,4.82-5.42C77.89,37,79.6,26.44,77,21c-2.15-4.47-7.78-9.86-13.67-8.78-5.69,1-9.63,7.8-8.49,9.56.84,1.29,4-.78,7.54,1,2.26,1.13,4.5,3.71,4.69,6.47.24,3.71-1.68,6.13-8,13.61-4.88,5.8-7.77,5.88-7.37,11.68.34,4.89,6.48,5,7.22,8.61,1.18,5.85-3.33,4.81-10.19,9.44C43,76.4,42,78.11,41.52,79.94,40,87.22,45.4,93.45,47.09,94.63c0,0,0,0,0,0,2.61,2.7,8.5,4.18,10.49,8.81,1.26,3-.94,6.23.83,7.14a2.93,2.93,0,0,0,3.24-.31c2.68-2.38,1.44-9.29-.83-13.13-2.39-4.06-8.79-7.37-8.79-7.37-2-1.37-2.49-3.41-.58-5.2"/><path class="cls-3" d="M32.06,69.41c-.21,1.34,3.2,1.34,3.2,1.34a9.74,9.74,0,0,0-2-2C32.83,68.49,32.12,69.05,32.06,69.41Z"/><path class="cls-3" d="M28.38,71.19c-.08,1.35,3.31,1,3.31,1a9.84,9.84,0,0,0-2.16-1.82C29.06,70.2,28.41,70.82,28.38,71.19Z"/><path class="cls-4" d="M40.83,66.65c.45-.13,1.35,1.36,1.79,2.62a5.93,5.93,0,0,1,.32,3.87c-.61,1.8-1.41,1.89-3.81,3.75-2.14,1.66-2.53,3.18-4,3.58-.5.14-.34.31-.54,0-.41-.71,1.95-2.82,3.17-3.91,2.41-2.15,3.15-2.32,3.48-3.42.68-2.21-.6-2.62-.7-3.74C40.5,68.93,40.32,66.79,40.83,66.65Z"/><path class="cls-5" d="M27.07,71.74a2.8,2.8,0,0,0,2.45.4c1-.33,1-1,2.06-1.87,1.53-1.19,2.53-.4,3.92-1.37,1.78-1.24,1.27-3.35,2.25-3.63,2-.55,4.71,7.07,5.4,6.75.38-.17-.09-2.21.39-5.37.37-2.45,1.54-2.89,1.18-4.32-1.19-4.58-3.26-3.29-4-4.22-1.2-1.44-.51-4.24.49-4.7,4.45-2.07,8.45,8.91,13.23,11.67,1.7,1,9.43,4.13,14.91.39,5.11-3.49,6.45-11.79,4-17.36-3-6.78-6.68-8-15.79-13.53-5.61-3.4-5.21-8.9-9-10.17-3.38-1.14-4.3,1.14-6.87,3.43-2.31,2.06,1,9.16,2,10.47,5.28,7.08,7.9,4.7,13.63,11.08,1.61,1.79,4,3.64,3.13,5-3.31,5.43-11.63-10.64-20.7-7.13C34,49.48,35.53,55.8,34.62,58c-1.25,3-6.26,3.59-6.48,6.37a5.38,5.38,0,0,1-.58,2.84c-.68,1.13-1.51,1.24-1.67,2.16A2.61,2.61,0,0,0,27.07,71.74Z"/><path class="cls-6" d="M31.15,68.24a2.46,2.46,0,0,1,.69-2.41,2.15,2.15,0,0,1,1.79-.42,2.16,2.16,0,0,1-.19,2C32.85,68.25,31.44,68.54,31.15,68.24Z"/><path class="cls-7" d="M31.72,66.33c-.14.16.21.68.46,1,.07.07.51.56.69.45S33,67,32.6,66.6,31.84,66.19,31.72,66.33Z"/><path class="cls-8" d="M84.76,2.11H25.24L3.63,25.41,15.84,90.67l39.33,27.22,39-27.22,12.21-65.26Zm4.82,85-34.43,24-34.73-24L9.63,29.45,28.71,8.87H81.29l19.08,20.58Z"/><path class="cls-9" d="M106,19.13c-6.41,5-7.19,24.37-7.19,24.37-43.05-27.34-84.93-2.28-84.93-2.28,1.78-11.43-9.94-21-9.94-21C53.26-14.58,106,19.13,106,19.13Z"/><path class="cls-10" d="M11.39,11.45c4.87,13.8,1.16,36.28,1.16,36.28C19.32,44.24,32,40.27,32,40.27,32.63,25.14,30.9,5.9,30.9,5.9,25.43,5.23,11.39,11.45,11.39,11.45Z"/><text class="cls-11" transform="matrix(0.84, -0.03, 0.04, 1, 12.85, 40.05)">S</text><text class="cls-12" transform="matrix(0.86, -0.07, 0.08, 1, 34.03, 27.17)">l</text><text class="cls-13" transform="matrix(1.06, 0.02, -0.02, 1, 38.86, 27.86)">y</text><text class="cls-14" transform="translate(47.54 25.96) scale(0.87 1)">t</text><text class="cls-15" transform="matrix(0.89, 0.02, -0.02, 1, 55.2, 25.23)">h</text><text class="cls-16" transform="translate(65.17 25.76) rotate(4.32) scale(0.91 1)">e</text><text class="cls-17" transform="translate(74.06 26.26) rotate(9.14) scale(1.01 1)">r</text><text class="cls-18" transform="matrix(1.05, 0.26, -0.24, 0.97, 81.85, 27.86)">i</text><text class="cls-19" transform="matrix(0.77, 0.29, -0.35, 0.94, 87.97, 29.38)">n</text></g></svg>